<svg xmlns="http://www.w3.org/2000/svg" xmlns:xlink="http://www.w3.org/1999/xlink" width="2000" zoomAndPan="magnify" viewBox="0 0 1500 1499.999933" height="2000" preserveAspectRatio="xMidYMid meet" version="1.0"><defs><clipPath id="f28932ae16"><path d="M 2 0 L 1498 0 L 1498 1428.75 L 2 1428.75 Z M 2 0 " clip-rule="nonzero"/></clipPath></defs><g clip-path="url(#f28932ae16)"><path fill="currentColor" d="M 1012.746094 679.484375 L 1071.273438 679.484375 L 1071.273438 70.277344 L 878.734375 70.277344 L 878.734375 244.246094 C 878.734375 263.589844 863.046875 279.277344 843.703125 279.277344 L 656.507812 279.277344 C 637.164062 279.277344 621.476562 263.589844 621.476562 244.246094 L 621.476562 70.277344 L 428.9375 70.277344 L 428.9375 679.484375 L 621.476562 679.484375 L 621.476562 505.515625 C 621.476562 486.167969 637.164062 470.480469 656.507812 470.480469 L 843.703125 470.480469 C 863.046875 470.480469 878.734375 486.167969 878.734375 505.515625 L 878.734375 679.484375 Z M 1141.339844 679.484375 L 1462.476562 679.484375 C 1481.820312 679.484375 1497.507812 695.171875 1497.507812 714.515625 L 1497.507812 1393.789062 C 1497.507812 1413.132812 1481.820312 1428.820312 1462.476562 1428.820312 L 37.523438 1428.820312 C 18.179688 1428.820312 2.492188 1413.132812 2.492188 1393.789062 L 2.492188 714.515625 C 2.492188 695.171875 18.179688 679.484375 37.523438 679.484375 L 358.660156 679.484375 L 358.660156 35.242188 C 358.660156 15.898438 374.347656 0.210938 393.691406 0.210938 L 1106.097656 0.210938 C 1125.441406 0.210938 1141.128906 15.898438 1141.128906 35.242188 L 1141.128906 679.484375 Z M 522.496094 749.546875 L 522.496094 923.515625 C 522.496094 942.863281 506.808594 958.550781 487.464844 958.550781 L 300.269531 958.550781 C 280.925781 958.550781 265.238281 942.863281 265.238281 923.515625 L 265.238281 749.546875 L 72.699219 749.546875 L 72.699219 1358.753906 L 715.039062 1358.753906 L 715.039062 749.546875 Z M 1234.972656 749.546875 L 1234.972656 923.515625 C 1234.972656 942.863281 1219.285156 958.550781 1199.941406 958.550781 L 1012.746094 958.550781 C 993.402344 958.550781 977.714844 942.863281 977.714844 923.515625 L 977.714844 749.546875 L 785.171875 749.546875 L 785.171875 1358.753906 L 1427.511719 1358.753906 L 1427.511719 749.546875 Z M 1234.972656 749.546875 " fill-opacity="1" fill-rule="evenodd"/></g></svg>